# xmcd
#
# Track frame offsets:
#	150
#	23516
#	48769
#	65959
#	83942
#	87237
#	110938
#	135177
#	152866
#	193450
#	220123
#	246620
#	270605
#	291301
#
# Disc length: 4304 seconds
#
# Revision: 0
# Processed by: cddbd v1.5.1PL0 Copyright (c) Steve Scherf et al.
# Submitted via: dBpowerAMP V4.0
#
DISCID=d610ce0e
DTITLE=eagles - greatest hits
DYEAR=1900
DGENRE=
TTITLE0=LIFE IN THE FAST LANE
TTITLE1=ALL NIGHT LING
TTITLE2=NIGHT
TTITLE3=DESPERADO
TTITLE4=DALTON(REPRISE)
TTITLE5=TAKE IT TO THE LIMIT
TTITLE6=TIME
TTITLE7=SEVEN BRIDGES ROAD
TTITLE8=S BEEN GOOD
TTITLE9=NEW KID IN TOWN
TTITLE10=THE LONG RUN
TTITLE11=T TELL YOU WHY
TTITLE12=TONIGHT
TTITLE13=CALIFORNIA
EXTD=
EXTT0=
EXTT1=
EXTT2=
EXTT3=
EXTT4=
EXTT5=
EXTT6=
EXTT7=
EXTT8=
EXTT9=
EXTT10=
EXTT11=
EXTT12=
EXTT13=
PLAYORDER=
